<svg width="46" height="32" viewBox="0 0 46 32" fill="none" xmlns="http://www.w3.org/2000/svg">
<rect x="0.5" y="0.5" width="45" height="31" rx="5.5" fill="white"/>
<rect x="0.5" y="0.5" width="45" height="31" rx="5.5" stroke="#F2F4F7"/>
<path fill-rule="evenodd" clip-rule="evenodd" d="M12.6963 11.1239C12.3095 11.5931 11.6907 11.9632 11.0719 11.9103C10.9945 11.2759 11.2975 10.6018 11.652 10.1855C12.0388 9.70308 12.7156 9.35944 13.2635 9.33301C13.328 9.99385 13.0766 10.6415 12.6963 11.1239ZM13.257 12.0358C12.7118 12.0037 12.2144 12.2039 11.8126 12.3657C11.554 12.4698 11.3351 12.5579 11.1685 12.5579C10.9816 12.5579 10.7536 12.465 10.4976 12.3608C10.1621 12.2242 9.77866 12.068 9.3765 12.0755C8.45472 12.0887 7.5974 12.624 7.12684 13.4765C6.15993 15.1814 6.87544 17.7058 7.81012 19.0936C8.26779 19.7809 8.8157 20.5342 9.53766 20.5078C9.85527 20.4955 10.0837 20.3961 10.3202 20.2933C10.5924 20.1748 10.8752 20.0518 11.3168 20.0518C11.743 20.0518 12.0134 20.1716 12.273 20.2867C12.5198 20.396 12.7569 20.501 13.1088 20.4946C13.8565 20.4814 14.3271 19.8073 14.7847 19.12C15.2786 18.3824 15.4957 17.6625 15.5286 17.5533L15.5325 17.5406C15.5317 17.5398 15.5256 17.537 15.5148 17.5319L15.5148 17.5319C15.3497 17.4544 14.0878 16.8622 14.0757 15.274C14.0635 13.9409 15.0766 13.2655 15.2361 13.1592L15.2361 13.1591C15.2458 13.1527 15.2523 13.1483 15.2553 13.1461C14.6107 12.168 13.6051 12.0623 13.257 12.0358ZM18.4332 20.4219V10.1194H22.2042C24.1509 10.1194 25.511 11.4939 25.511 13.5029C25.511 15.5119 24.1251 16.8996 22.1526 16.8996H19.9932V20.4219H18.4332ZM19.9931 11.4675H21.7915C23.1452 11.4675 23.9187 12.2077 23.9187 13.5095C23.9187 14.8114 23.1452 15.5581 21.785 15.5581H19.9931V11.4675ZM30.6614 19.1861C30.2489 19.9924 29.34 20.5012 28.3602 20.5012C26.9098 20.5012 25.8978 19.6157 25.8978 18.2808C25.8978 16.9591 26.8776 16.1991 28.689 16.0868L30.6357 15.9678V15.3995C30.6357 14.5603 30.1006 14.1043 29.1466 14.1043C28.3602 14.1043 27.7865 14.5206 27.6705 15.155H26.2652C26.3104 13.8201 27.5351 12.8487 29.1917 12.8487C30.9773 12.8487 32.1376 13.8069 32.1376 15.2938V20.4219H30.6937V19.1861H30.6614ZM28.7791 19.2787C27.9476 19.2787 27.419 18.8689 27.419 18.2411C27.419 17.5935 27.9282 17.2168 28.9016 17.1574L30.6356 17.045V17.6266C30.6356 18.5914 29.8362 19.2787 28.7791 19.2787ZM36.9269 20.825C36.3017 22.6291 35.5862 23.2239 34.0649 23.2239C33.9489 23.2239 33.5621 23.2107 33.4719 23.1842V21.9485C33.5685 21.9617 33.807 21.9749 33.9295 21.9749C34.6192 21.9749 35.006 21.6775 35.2445 20.9043L35.3863 20.4483L32.7435 12.9478H34.3743L36.2114 19.0341H36.2437L38.0808 12.9478H39.6665L36.9269 20.825Z" fill="black"/>
</svg>
