<svg width="24" height="24" viewBox="0 0 24 24" fill="none" xmlns="http://www.w3.org/2000/svg">
<path d="M4.22222 9.66667L5.88889 4.66667H18.1111L19.7778 9.66667M18.1111 15.2222C17.6691 15.2222 17.2452 15.0466 16.9326 14.7341C16.62 14.4215 16.4444 13.9976 16.4444 13.5556C16.4444 13.1135 16.62 12.6896 16.9326 12.377C17.2452 12.0645 17.6691 11.8889 18.1111 11.8889C18.5531 11.8889 18.9771 12.0645 19.2896 12.377C19.6022 12.6896 19.7778 13.1135 19.7778 13.5556C19.7778 13.9976 19.6022 14.4215 19.2896 14.7341C18.9771 15.0466 18.5531 15.2222 18.1111 15.2222ZM5.88889 15.2222C5.44686 15.2222 5.02294 15.0466 4.71038 14.7341C4.39782 14.4215 4.22222 13.9976 4.22222 13.5556C4.22222 13.1135 4.39782 12.6896 4.71038 12.377C5.02294 12.0645 5.44686 11.8889 5.88889 11.8889C6.33092 11.8889 6.75484 12.0645 7.0674 12.377C7.37996 12.6896 7.55556 13.1135 7.55556 13.5556C7.55556 13.9976 7.37996 14.4215 7.0674 14.7341C6.75484 15.0466 6.33092 15.2222 5.88889 15.2222ZM19.6889 4.11111C19.4667 3.46667 18.8444 3 18.1111 3H5.88889C5.15556 3 4.53333 3.46667 4.31111 4.11111L2 10.7778V19.6667C2 19.9614 2.11706 20.244 2.32544 20.4523C2.53381 20.6607 2.81643 20.7778 3.11111 20.7778H4.22222C4.51691 20.7778 4.79952 20.6607 5.0079 20.4523C5.21627 20.244 5.33333 19.9614 5.33333 19.6667V18.5556H18.6667V19.6667C18.6667 19.9614 18.7837 20.244 18.9921 20.4523C19.2005 20.6607 19.4831 20.7778 19.7778 20.7778H20.8889C21.1836 20.7778 21.4662 20.6607 21.6746 20.4523C21.8829 20.244 22 19.9614 22 19.6667V10.7778L19.6889 4.11111Z" fill="#344054"/>
</svg>
