<svg width="29" height="14" viewBox="0 0 29 14" fill="none" xmlns="http://www.w3.org/2000/svg">
<path d="M17.145 2.07709L15.6052 1.06882C15.3853 0.942788 15.0773 0.984799 14.9453 1.23687L14.4614 2.07709" fill="#015F23"/>
<path d="M26.9553 8.21052L26.4713 7.95845C26.2954 7.87443 26.2074 7.70638 26.2514 7.53834C26.3834 6.74013 26.4713 3.96739 21.9841 2.70705C21.8961 2.66504 21.8082 2.66504 21.7202 2.66504L13.0977 2.70705C12.9217 2.70705 12.7457 2.74906 12.6138 2.83308L8.08256 5.73186C7.99458 5.77387 7.90659 5.81588 7.81861 5.81588C6.98275 5.77387 6.19089 5.85789 5.35504 5.98392C2.97946 6.44605 2.01163 7.66437 1.65969 8.29454C1.5717 8.42057 1.5717 8.58862 1.5717 8.71465C1.6157 9.72292 0.91182 10.8572 1.96763 11.7815L10.5021 11.7395L19.4766 11.5294L26.5593 11.4454C26.9553 11.4034 27.6151 10.8572 27.7911 10.5211C28.539 9.38683 27.0432 8.25253 26.9553 8.21052Z" fill="#03C548"/>
<path d="M6.05901 9.21875C5.09118 9.21875 4.29932 9.97495 4.29932 10.8992C4.29932 11.8234 5.09118 12.5796 6.05901 12.5796C7.02684 12.5796 7.8187 11.8234 7.8187 10.8992C7.8187 9.97495 7.02684 9.21875 6.05901 9.21875ZM23.5679 9.21875C22.6001 9.21875 21.8082 9.97495 21.8082 10.8992C21.8082 11.8234 22.6001 12.5796 23.5679 12.5796C24.5358 12.5796 25.3276 11.8234 25.3276 10.8992C25.3276 9.97495 24.5358 9.21875 23.5679 9.21875Z" fill="#9B9B9A"/>
<path d="M23.1279 6.23649V4.43001C23.1279 4.05191 22.776 3.71582 22.3801 3.71582H13.0537C13.0097 3.71582 12.9657 3.71582 12.9657 3.75783L9.18238 6.15247C9.0944 6.19448 9.35835 6.32052 9.40234 6.40454C9.44633 6.44655 9.49033 6.48856 9.53432 6.48856C11.9979 6.48856 21.5002 6.40454 22.908 6.44655C23.0399 6.44655 23.1279 6.36253 23.1279 6.23649C23.1279 6.2785 23.1279 6.2785 23.1279 6.23649Z" fill="#3F3F3F"/>
<path d="M2.36376 6.74023L4.12345 7.41241L3.19961 8.63074L1 8.67275L2.36376 6.74023Z" fill="#D0CFCE"/>
<path d="M17.145 2.07709L15.6052 1.06882C15.3853 0.942788 15.0773 0.984799 14.9453 1.23687L14.4614 2.07709" stroke="#101828" stroke-width="2" stroke-miterlimit="10" stroke-linecap="round" stroke-linejoin="round"/>
<path d="M19.3887 11.1515L10.3263 11.3195M2.01173 11.3195C1.6158 11.2355 1.26386 11.1095 1.21987 10.8994C1.17588 10.4793 1.08789 9.30298 1.08789 8.75683C1.08789 8.54678 1.13188 8.29471 1.26386 8.12666C1.74777 7.28644 3.37549 5.2699 7.81871 5.43795L12.3499 2.53918C12.5699 2.41314 12.8338 2.32912 13.0538 2.32912L21.6763 2.28711C21.8083 2.28711 21.9402 2.28711 22.0722 2.32912C23.04 2.58119 27.2193 4.00957 26.6474 7.62253L27.1313 7.8746C27.3513 7.95862 27.5272 8.16868 27.5712 8.37873C27.7472 8.96689 27.7032 9.59706 27.4833 10.1852" stroke="#101828" stroke-width="2" stroke-linecap="round" stroke-linejoin="round"/>
<path d="M9.40234 6.4882L22.688 6.40418V4.51367" stroke="#101828" stroke-width="2" stroke-linecap="round" stroke-linejoin="round"/>
<path d="M6.05899 12.9999C7.2738 12.9999 8.2586 12.0595 8.2586 10.8994C8.2586 9.73928 7.2738 8.79883 6.05899 8.79883C4.84418 8.79883 3.85938 9.73928 3.85938 10.8994C3.85938 12.0595 4.84418 12.9999 6.05899 12.9999Z" stroke="#101828" stroke-width="2" stroke-linecap="round" stroke-linejoin="round"/>
<path d="M23.5678 12.9999C24.7826 12.9999 25.7674 12.0595 25.7674 10.8994C25.7674 9.73928 24.7826 8.79883 23.5678 8.79883C22.353 8.79883 21.3682 9.73928 21.3682 10.8994C21.3682 12.0595 22.353 12.9999 23.5678 12.9999Z" stroke="#101828" stroke-width="2" stroke-linecap="round" stroke-linejoin="round"/>
<path d="M3.85952 7.74902L3.06766 8.67327L1.43994 8.63126" stroke="#101828" stroke-width="2" stroke-linecap="round" stroke-linejoin="round"/>
<path d="M9.05029 7.95898H20.4883" stroke="#101828" stroke-width="2" stroke-miterlimit="10" stroke-linecap="round" stroke-linejoin="round"/>
<path d="M9.05078 7.95898H20.4888" stroke="#015F23" stroke-width="2.1" stroke-miterlimit="10" stroke-linecap="round" stroke-linejoin="round"/>
</svg>
