<svg width="275" height="48" viewBox="0 0 275 48" fill="none" xmlns="http://www.w3.org/2000/svg">
<g clip-path="url(#clip0_3_32932)">
<path d="M12.4679 16.745C12.9629 15.787 14.0079 15.145 15.2719 15.304C16.6085 15.4666 17.9342 15.709 19.2419 16.03C21.2519 16.532 23.0129 17.497 24.3149 18.378L24.7549 18.684L25.1549 18.979L25.5129 19.255L25.8269 19.509L26.0939 19.735L26.3139 19.927C27.1569 20.678 26.5839 21.905 25.6289 21.995L25.5169 22H16.9229C15.2409 22 13.8429 21.155 12.8189 19.874C12.0449 18.907 11.9789 17.691 12.4689 16.745H12.4679ZM27.9999 2C28.8929 2 29.2779 2.84 29.4669 3.61L29.5269 3.878L29.5509 4.006C29.6949 4.803 29.7719 5.848 29.8029 6.922C29.8629 9.047 29.7409 11.524 29.4759 12.717C29.0139 14.799 28.3359 16.246 27.5239 17.118C26.6979 18.008 25.5819 18.409 24.5529 17.894C23.7639 17.5 23.2929 16.563 23.0349 15.764C22.6583 14.5994 22.6643 13.3449 23.0519 12.184C23.2619 11.552 23.6399 11.042 24.0559 10.557L24.4189 10.146C24.8609 9.651 25.3039 9.156 25.6059 8.553C26.0459 7.673 26.1659 6.71 26.2029 5.743L26.2169 5.163L26.2259 4.603L26.2319 4.465L26.2519 4.185C26.3469 3.107 26.7159 2 27.9999 2Z" fill="#344054"/>
</g>
<path d="M3.72017 43.1193C3.18608 43.1193 2.70597 43.017 2.27983 42.8125C1.85653 42.6051 1.51847 42.321 1.26562 41.9602C1.01278 41.5994 0.877841 41.1875 0.860795 40.7244H2.1392C2.17045 41.0994 2.33665 41.4077 2.63778 41.6491C2.93892 41.8906 3.29972 42.0114 3.72017 42.0114C4.0554 42.0114 4.35227 41.9347 4.6108 41.7812C4.87216 41.625 5.0767 41.4105 5.22443 41.1378C5.375 40.8651 5.45028 40.554 5.45028 40.2045C5.45028 39.8494 5.37358 39.5327 5.22017 39.2543C5.06676 38.9759 4.85511 38.7571 4.58523 38.598C4.31818 38.4389 4.01136 38.358 3.66477 38.3551C3.40057 38.3551 3.13494 38.4006 2.8679 38.4915C2.60085 38.5824 2.38494 38.7017 2.22017 38.8494L1.0142 38.6705L1.50426 34.2727H6.30256V35.402H2.59943L2.32244 37.8438H2.37358C2.54403 37.679 2.76989 37.5412 3.05114 37.4304C3.33523 37.3196 3.6392 37.2642 3.96307 37.2642C4.49432 37.2642 4.96733 37.3906 5.3821 37.6435C5.79972 37.8963 6.12784 38.2415 6.36648 38.679C6.60795 39.1136 6.72727 39.6136 6.72443 40.179C6.72727 40.7443 6.59943 41.2486 6.34091 41.6918C6.08523 42.1349 5.73011 42.4844 5.27557 42.7401C4.82386 42.9929 4.3054 43.1193 3.72017 43.1193ZM16.3786 38.0526L15.2237 38.2571C15.1754 38.1094 15.0987 37.9687 14.9936 37.8352C14.8913 37.7017 14.7521 37.5923 14.576 37.5071C14.3999 37.4219 14.1797 37.3793 13.9155 37.3793C13.5547 37.3793 13.2536 37.4602 13.0121 37.6222C12.7706 37.7812 12.6499 37.9872 12.6499 38.2401C12.6499 38.4588 12.7308 38.6349 12.8928 38.7685C13.0547 38.902 13.3161 39.0114 13.6768 39.0966L14.7166 39.3352C15.3189 39.4744 15.7678 39.6889 16.0632 39.9787C16.3587 40.2685 16.5064 40.6449 16.5064 41.108C16.5064 41.5 16.3928 41.8494 16.1655 42.1562C15.9411 42.4602 15.6271 42.6989 15.2237 42.8722C14.8232 43.0455 14.3587 43.1321 13.8303 43.1321C13.0973 43.1321 12.4993 42.9759 12.0362 42.6634C11.5732 42.348 11.2891 41.9006 11.1839 41.321L12.4155 41.1335C12.4922 41.4545 12.6499 41.6974 12.8885 41.8622C13.1271 42.0241 13.4382 42.1051 13.8217 42.1051C14.2393 42.1051 14.5732 42.0185 14.8232 41.8452C15.0732 41.669 15.1982 41.4545 15.1982 41.2017C15.1982 40.9972 15.1214 40.8253 14.968 40.6861C14.8175 40.5469 14.5859 40.4418 14.2734 40.3707L13.1655 40.1278C12.5547 39.9886 12.103 39.767 11.8104 39.4631C11.5206 39.1591 11.3757 38.7741 11.3757 38.3082C11.3757 37.9219 11.4837 37.5838 11.6996 37.294C11.9155 37.0043 12.2138 36.7784 12.5945 36.6165C12.9751 36.4517 13.4112 36.3693 13.9027 36.3693C14.6101 36.3693 15.1669 36.5227 15.5732 36.8295C15.9794 37.1335 16.2479 37.5412 16.3786 38.0526ZM20.7283 43.1321C20.0835 43.1321 19.5281 42.9943 19.0621 42.7188C18.5991 42.4403 18.2411 42.0497 17.9883 41.5469C17.7383 41.0412 17.6133 40.4489 17.6133 39.7699C17.6133 39.0994 17.7383 38.5085 17.9883 37.9972C18.2411 37.4858 18.5934 37.0866 19.0451 36.7997C19.4996 36.5128 20.0309 36.3693 20.6388 36.3693C21.0082 36.3693 21.3661 36.4304 21.7127 36.5526C22.0593 36.6747 22.3704 36.8665 22.646 37.1278C22.9215 37.3892 23.1388 37.7287 23.2979 38.1463C23.457 38.5611 23.5366 39.0653 23.5366 39.6591V40.1108H18.3335V39.1562H22.288C22.288 38.821 22.2198 38.5241 22.0835 38.2656C21.9471 38.0043 21.7553 37.7983 21.5082 37.6477C21.2638 37.4972 20.9769 37.4219 20.6474 37.4219C20.2894 37.4219 19.9769 37.5099 19.7099 37.6861C19.4457 37.8594 19.2411 38.0866 19.0962 38.3679C18.9542 38.6463 18.8832 38.9489 18.8832 39.2756V40.0213C18.8832 40.4588 18.9599 40.831 19.1133 41.1378C19.2695 41.4446 19.4869 41.679 19.7653 41.8409C20.0437 42 20.369 42.0795 20.7411 42.0795C20.9826 42.0795 21.2028 42.0455 21.4016 41.9773C21.6005 41.9062 21.7724 41.8011 21.9173 41.6619C22.0621 41.5227 22.1729 41.3509 22.2496 41.1463L23.4556 41.3636C23.359 41.7187 23.1857 42.0298 22.9357 42.2969C22.6886 42.5611 22.3775 42.767 22.0025 42.9148C21.6303 43.0597 21.2056 43.1321 20.7283 43.1321ZM26.8551 43.1449C26.4403 43.1449 26.0653 43.0682 25.7301 42.9148C25.3949 42.7585 25.1293 42.5327 24.9332 42.2372C24.7401 41.9418 24.6435 41.5795 24.6435 41.1506C24.6435 40.7812 24.7145 40.4773 24.8565 40.2386C24.9986 40 25.1903 39.8111 25.4318 39.6719C25.6733 39.5327 25.9432 39.4276 26.2415 39.3565C26.5398 39.2855 26.8438 39.2315 27.1534 39.1946C27.5455 39.1491 27.8636 39.1122 28.108 39.0838C28.3523 39.0526 28.5298 39.0028 28.6406 38.9347C28.7514 38.8665 28.8068 38.7557 28.8068 38.6023V38.5724C28.8068 38.2003 28.7017 37.9119 28.4915 37.7074C28.2841 37.5028 27.9744 37.4006 27.5625 37.4006C27.1335 37.4006 26.7955 37.4957 26.5483 37.6861C26.304 37.8736 26.1349 38.0824 26.0412 38.3125L24.8438 38.0398C24.9858 37.642 25.1932 37.321 25.4659 37.0767C25.7415 36.8295 26.0582 36.6506 26.4162 36.5398C26.7741 36.4261 27.1506 36.3693 27.5455 36.3693C27.8068 36.3693 28.0838 36.4006 28.3764 36.4631C28.6719 36.5227 28.9474 36.6335 29.2031 36.7955C29.4616 36.9574 29.6733 37.1889 29.8381 37.4901C30.0028 37.7884 30.0852 38.1761 30.0852 38.6534V43H28.8409V42.1051H28.7898C28.7074 42.2699 28.5838 42.4318 28.419 42.5909C28.2543 42.75 28.0426 42.8821 27.7841 42.9872C27.5256 43.0923 27.2159 43.1449 26.8551 43.1449ZM27.1321 42.1222C27.4844 42.1222 27.7855 42.0526 28.0355 41.9134C28.2884 41.7741 28.4801 41.5923 28.6108 41.3679C28.7443 41.1406 28.8111 40.8977 28.8111 40.6392V39.7955C28.7656 39.8409 28.6776 39.8835 28.5469 39.9233C28.419 39.9602 28.2727 39.9929 28.108 40.0213C27.9432 40.0469 27.7827 40.071 27.6264 40.0938C27.4702 40.1136 27.3395 40.1307 27.2344 40.1449C26.9872 40.1761 26.7614 40.2287 26.5568 40.3026C26.3551 40.3764 26.1932 40.483 26.071 40.6222C25.9517 40.7585 25.892 40.9403 25.892 41.1676C25.892 41.483 26.0085 41.7216 26.2415 41.8835C26.4744 42.0426 26.7713 42.1222 27.1321 42.1222ZM34.8377 36.4545V37.4773H31.2624V36.4545H34.8377ZM32.2212 34.8864H33.4954V41.0781C33.4954 41.3253 33.5323 41.5114 33.6062 41.6364C33.68 41.7585 33.7752 41.8423 33.8917 41.8878C34.011 41.9304 34.1403 41.9517 34.2795 41.9517C34.3817 41.9517 34.4712 41.9446 34.5479 41.9304C34.6246 41.9162 34.6843 41.9048 34.7269 41.8963L34.957 42.9489C34.8832 42.9773 34.7781 43.0057 34.6417 43.0341C34.5053 43.0653 34.3349 43.0824 34.1303 43.0852C33.7951 43.0909 33.4826 43.0312 33.1928 42.9062C32.9031 42.7812 32.6687 42.5881 32.4897 42.3267C32.3107 42.0653 32.2212 41.7372 32.2212 41.3423V34.8864ZM41.0465 38.0526L39.8917 38.2571C39.8434 38.1094 39.7667 37.9687 39.6616 37.8352C39.5593 37.7017 39.4201 37.5923 39.244 37.5071C39.0678 37.4219 38.8477 37.3793 38.5835 37.3793C38.2227 37.3793 37.9215 37.4602 37.68 37.6222C37.4386 37.7812 37.3178 37.9872 37.3178 38.2401C37.3178 38.4588 37.3988 38.6349 37.5607 38.7685C37.7227 38.902 37.984 39.0114 38.3448 39.0966L39.3846 39.3352C39.9869 39.4744 40.4357 39.6889 40.7312 39.9787C41.0266 40.2685 41.1744 40.6449 41.1744 41.108C41.1744 41.5 41.0607 41.8494 40.8335 42.1562C40.609 42.4602 40.2951 42.6989 39.8917 42.8722C39.4911 43.0455 39.0266 43.1321 38.4982 43.1321C37.7653 43.1321 37.1673 42.9759 36.7042 42.6634C36.2411 42.348 35.957 41.9006 35.8519 41.321L37.0835 41.1335C37.1602 41.4545 37.3178 41.6974 37.5565 41.8622C37.7951 42.0241 38.1062 42.1051 38.4897 42.1051C38.9073 42.1051 39.2411 42.0185 39.4911 41.8452C39.7411 41.669 39.8661 41.4545 39.8661 41.2017C39.8661 40.9972 39.7894 40.8253 39.636 40.6861C39.4854 40.5469 39.2539 40.4418 38.9414 40.3707L37.8335 40.1278C37.2227 39.9886 36.771 39.767 36.4783 39.4631C36.1886 39.1591 36.0437 38.7741 36.0437 38.3082C36.0437 37.9219 36.1516 37.5838 36.3675 37.294C36.5835 37.0043 36.8817 36.7784 37.2624 36.6165C37.6431 36.4517 38.0792 36.3693 38.5707 36.3693C39.2781 36.3693 39.8349 36.5227 40.2411 36.8295C40.6474 37.1335 40.9158 37.5412 41.0465 38.0526Z" fill="#667085"/>
<line x1="62.5" y1="2.18557e-08" x2="62.5" y2="48" stroke="#D0D5DD"/>
<path d="M101 14H98V16H101V14ZM104 21H85V11L93 3H103C103.265 3 103.52 3.10536 103.707 3.29289C103.895 3.48043 104 3.73478 104 4V21ZM93.83 5L87.83 11H102V5H93.83Z" fill="#344054"/>
<path d="M82.6562 41.2955V40.2301L86.4276 34.2727H87.267V35.8409H86.7344L84.0369 40.1108V40.179H89.206V41.2955H82.6562ZM86.794 43V40.9716L86.8026 40.4858V34.2727H88.0511V43H86.794ZM96.3342 43.1278C95.8058 43.1278 95.3342 42.9929 94.9194 42.723C94.5075 42.4503 94.1836 42.0625 93.9478 41.5597C93.7148 41.054 93.5984 40.4474 93.5984 39.7401C93.5984 39.0327 93.7163 38.4276 93.9521 37.9247C94.1907 37.4219 94.5174 37.0369 94.9322 36.7699C95.3469 36.5028 95.8171 36.3693 96.3427 36.3693C96.7489 36.3693 97.0756 36.4375 97.3228 36.5739C97.5728 36.7074 97.766 36.8636 97.9023 37.0426C98.0415 37.2216 98.1495 37.3793 98.2262 37.5156H98.3029V34.2727H99.5771V43H98.3327V41.9815H98.2262C98.1495 42.1207 98.0387 42.2798 97.8938 42.4588C97.7518 42.6378 97.5558 42.794 97.3058 42.9276C97.0558 43.0611 96.7319 43.1278 96.3342 43.1278ZM96.6154 42.0412C96.9819 42.0412 97.2915 41.9446 97.5444 41.7514C97.8001 41.5554 97.9933 41.2841 98.1239 40.9375C98.2575 40.5909 98.3242 40.1875 98.3242 39.7273C98.3242 39.2727 98.2589 38.875 98.1282 38.5341C97.9975 38.1932 97.8058 37.9276 97.5529 37.7372C97.3001 37.5469 96.9876 37.4517 96.6154 37.4517C96.2319 37.4517 95.9123 37.5511 95.6566 37.75C95.4009 37.9489 95.2077 38.2202 95.0771 38.5639C94.9492 38.9077 94.8853 39.2955 94.8853 39.7273C94.8853 40.1648 94.9506 40.5582 95.0813 40.9077C95.212 41.2571 95.4052 41.5341 95.6609 41.7386C95.9194 41.9403 96.2376 42.0412 96.6154 42.0412ZM104.153 43.1321C103.539 43.1321 103.004 42.9915 102.546 42.7102C102.089 42.429 101.734 42.0355 101.481 41.5298C101.228 41.0241 101.102 40.4332 101.102 39.7571C101.102 39.0781 101.228 38.4844 101.481 37.9759C101.734 37.4673 102.089 37.0724 102.546 36.7912C103.004 36.5099 103.539 36.3693 104.153 36.3693C104.766 36.3693 105.302 36.5099 105.759 36.7912C106.217 37.0724 106.572 37.4673 106.825 37.9759C107.077 38.4844 107.204 39.0781 107.204 39.7571C107.204 40.4332 107.077 41.0241 106.825 41.5298C106.572 42.0355 106.217 42.429 105.759 42.7102C105.302 42.9915 104.766 43.1321 104.153 43.1321ZM104.157 42.0625C104.555 42.0625 104.884 41.9574 105.146 41.7472C105.407 41.5369 105.6 41.2571 105.725 40.9077C105.853 40.5582 105.917 40.1733 105.917 39.7528C105.917 39.3352 105.853 38.9517 105.725 38.6023C105.6 38.25 105.407 37.9673 105.146 37.7543C104.884 37.5412 104.555 37.4347 104.157 37.4347C103.756 37.4347 103.424 37.5412 103.16 37.7543C102.898 37.9673 102.704 38.25 102.576 38.6023C102.451 38.9517 102.388 39.3352 102.388 39.7528C102.388 40.1733 102.451 40.5582 102.576 40.9077C102.704 41.2571 102.898 41.5369 103.16 41.7472C103.424 41.9574 103.756 42.0625 104.157 42.0625ZM111.383 43.1321C110.77 43.1321 110.234 42.9915 109.777 42.7102C109.319 42.429 108.964 42.0355 108.711 41.5298C108.458 41.0241 108.332 40.4332 108.332 39.7571C108.332 39.0781 108.458 38.4844 108.711 37.9759C108.964 37.4673 109.319 37.0724 109.777 36.7912C110.234 36.5099 110.77 36.3693 111.383 36.3693C111.997 36.3693 112.532 36.5099 112.99 36.7912C113.447 37.0724 113.802 37.4673 114.055 37.9759C114.308 38.4844 114.434 39.0781 114.434 39.7571C114.434 40.4332 114.308 41.0241 114.055 41.5298C113.802 42.0355 113.447 42.429 112.99 42.7102C112.532 42.9915 111.997 43.1321 111.383 43.1321ZM111.387 42.0625C111.785 42.0625 112.115 41.9574 112.376 41.7472C112.637 41.5369 112.831 41.2571 112.956 40.9077C113.083 40.5582 113.147 40.1733 113.147 39.7528C113.147 39.3352 113.083 38.9517 112.956 38.6023C112.831 38.25 112.637 37.9673 112.376 37.7543C112.115 37.5412 111.785 37.4347 111.387 37.4347C110.987 37.4347 110.654 37.5412 110.39 37.7543C110.129 37.9673 109.934 38.25 109.806 38.6023C109.681 38.9517 109.619 39.3352 109.619 39.7528C109.619 40.1733 109.681 40.5582 109.806 40.9077C109.934 41.2571 110.129 41.5369 110.39 41.7472C110.654 41.9574 110.987 42.0625 111.387 42.0625ZM115.857 43V36.4545H117.088V37.4943H117.156C117.276 37.142 117.486 36.8651 117.787 36.6634C118.091 36.4588 118.435 36.3565 118.818 36.3565C118.898 36.3565 118.991 36.3594 119.099 36.3651C119.21 36.3707 119.297 36.3778 119.359 36.3864V37.6051C119.308 37.5909 119.217 37.5753 119.087 37.5582C118.956 37.5384 118.825 37.5284 118.695 37.5284C118.393 37.5284 118.125 37.5923 117.889 37.7202C117.656 37.8452 117.472 38.0199 117.335 38.2443C117.199 38.4659 117.131 38.7187 117.131 39.0028V43H115.857ZM125.367 38.0526L124.212 38.2571C124.164 38.1094 124.087 37.9687 123.982 37.8352C123.88 37.7017 123.74 37.5923 123.564 37.5071C123.388 37.4219 123.168 37.3793 122.904 37.3793C122.543 37.3793 122.242 37.4602 122 37.6222C121.759 37.7812 121.638 37.9872 121.638 38.2401C121.638 38.4588 121.719 38.6349 121.881 38.7685C122.043 38.902 122.304 39.0114 122.665 39.0966L123.705 39.3352C124.307 39.4744 124.756 39.6889 125.051 39.9787C125.347 40.2685 125.495 40.6449 125.495 41.108C125.495 41.5 125.381 41.8494 125.154 42.1562C124.929 42.4602 124.615 42.6989 124.212 42.8722C123.811 43.0455 123.347 43.1321 122.819 43.1321C122.086 43.1321 121.488 42.9759 121.025 42.6634C120.561 42.348 120.277 41.9006 120.172 41.321L121.404 41.1335C121.48 41.4545 121.638 41.6974 121.877 41.8622C122.115 42.0241 122.426 42.1051 122.81 42.1051C123.228 42.1051 123.561 42.0185 123.811 41.8452C124.061 41.669 124.186 41.4545 124.186 41.2017C124.186 40.9972 124.11 40.8253 123.956 40.6861C123.806 40.5469 123.574 40.4418 123.262 40.3707L122.154 40.1278C121.543 39.9886 121.091 39.767 120.799 39.4631C120.509 39.1591 120.364 38.7741 120.364 38.3082C120.364 37.9219 120.472 37.5838 120.688 37.294C120.904 37.0043 121.202 36.7784 121.583 36.6165C121.963 36.4517 122.4 36.3693 122.891 36.3693C123.598 36.3693 124.155 36.5227 124.561 36.8295C124.968 37.1335 125.236 37.5412 125.367 38.0526Z" fill="#667085"/>
<line x1="147.5" y1="2.18557e-08" x2="147.5" y2="48" stroke="#D0D5DD"/>
<mask id="mask0_3_32932" style="mask-type:luminance" maskUnits="userSpaceOnUse" x="179" y="0" width="16" height="24">
<path d="M191 6H183C181.895 6 181 6.89543 181 8V18C181 19.1046 181.895 20 183 20H191C192.105 20 193 19.1046 193 18V8C193 6.89543 192.105 6 191 6Z" fill="white" stroke="white" stroke-width="4" stroke-linecap="round" stroke-linejoin="round"/>
<path d="M185 6V3M189 6V3M183 2H191M184 20V22M190 20V22" stroke="white" stroke-width="4" stroke-linecap="round" stroke-linejoin="round"/>
<path d="M185 12.5H189" stroke="black" stroke-width="4" stroke-linecap="round" stroke-linejoin="round"/>
</mask>
<g mask="url(#mask0_3_32932)">
<path d="M175 0H199V24H175V0Z" fill="#344054"/>
</g>
<path d="M167.656 41.2955V40.2301L171.428 34.2727H172.267V35.8409H171.734L169.037 40.1108V40.179H174.206V41.2955H167.656ZM171.794 43V40.9716L171.803 40.4858V34.2727H173.051V43H171.794ZM178.986 43V34.2727H180.26V37.5156H180.337C180.411 37.3793 180.517 37.2216 180.657 37.0426C180.796 36.8636 180.989 36.7074 181.236 36.5739C181.483 36.4375 181.81 36.3693 182.216 36.3693C182.745 36.3693 183.216 36.5028 183.631 36.7699C184.046 37.0369 184.371 37.4219 184.607 37.9247C184.846 38.4276 184.965 39.0327 184.965 39.7401C184.965 40.4474 184.847 41.054 184.611 41.5597C184.375 42.0625 184.051 42.4503 183.64 42.723C183.228 42.9929 182.757 43.1278 182.229 43.1278C181.831 43.1278 181.506 43.0611 181.253 42.9276C181.003 42.794 180.807 42.6378 180.665 42.4588C180.523 42.2798 180.414 42.1207 180.337 41.9815H180.23V43H178.986ZM180.235 39.7273C180.235 40.1875 180.301 40.5909 180.435 40.9375C180.569 41.2841 180.762 41.5554 181.015 41.7514C181.267 41.9446 181.577 42.0412 181.944 42.0412C182.324 42.0412 182.642 41.9403 182.898 41.7386C183.154 41.5341 183.347 41.2571 183.478 40.9077C183.611 40.5582 183.678 40.1648 183.678 39.7273C183.678 39.2955 183.613 38.9077 183.482 38.5639C183.354 38.2202 183.161 37.9489 182.902 37.75C182.647 37.5511 182.327 37.4517 181.944 37.4517C181.574 37.4517 181.262 37.5469 181.006 37.7372C180.753 37.9276 180.561 38.1932 180.431 38.5341C180.3 38.875 180.235 39.2727 180.235 39.7273ZM188.3 43.1449C187.886 43.1449 187.511 43.0682 187.175 42.9148C186.84 42.7585 186.575 42.5327 186.379 42.2372C186.185 41.9418 186.089 41.5795 186.089 41.1506C186.089 40.7812 186.16 40.4773 186.302 40.2386C186.444 40 186.636 39.8111 186.877 39.6719C187.119 39.5327 187.388 39.4276 187.687 39.3565C187.985 39.2855 188.289 39.2315 188.599 39.1946C188.991 39.1491 189.309 39.1122 189.553 39.0838C189.798 39.0526 189.975 39.0028 190.086 38.9347C190.197 38.8665 190.252 38.7557 190.252 38.6023V38.5724C190.252 38.2003 190.147 37.9119 189.937 37.7074C189.729 37.5028 189.42 37.4006 189.008 37.4006C188.579 37.4006 188.241 37.4957 187.994 37.6861C187.749 37.8736 187.58 38.0824 187.487 38.3125L186.289 38.0398C186.431 37.642 186.638 37.321 186.911 37.0767C187.187 36.8295 187.504 36.6506 187.862 36.5398C188.219 36.4261 188.596 36.3693 188.991 36.3693C189.252 36.3693 189.529 36.4006 189.822 36.4631C190.117 36.5227 190.393 36.6335 190.648 36.7955C190.907 36.9574 191.119 37.1889 191.283 37.4901C191.448 37.7884 191.531 38.1761 191.531 38.6534V43H190.286V42.1051H190.235C190.153 42.2699 190.029 42.4318 189.864 42.5909C189.7 42.75 189.488 42.8821 189.229 42.9872C188.971 43.0923 188.661 43.1449 188.3 43.1449ZM188.577 42.1222C188.93 42.1222 189.231 42.0526 189.481 41.9134C189.734 41.7741 189.925 41.5923 190.056 41.3679C190.19 41.1406 190.256 40.8977 190.256 40.6392V39.7955C190.211 39.8409 190.123 39.8835 189.992 39.9233C189.864 39.9602 189.718 39.9929 189.553 40.0213C189.388 40.0469 189.228 40.071 189.072 40.0938C188.915 40.1136 188.785 40.1307 188.68 40.1449C188.433 40.1761 188.207 40.2287 188.002 40.3026C187.8 40.3764 187.638 40.483 187.516 40.6222C187.397 40.7585 187.337 40.9403 187.337 41.1676C187.337 41.483 187.454 41.7216 187.687 41.8835C187.92 42.0426 188.217 42.1222 188.577 42.1222ZM195.972 45.5909C195.452 45.5909 195.005 45.5227 194.63 45.3864C194.257 45.25 193.953 45.0696 193.718 44.8452C193.482 44.6207 193.306 44.375 193.189 44.108L194.284 43.6562C194.361 43.7812 194.463 43.9134 194.591 44.0526C194.722 44.1946 194.898 44.3153 195.12 44.4148C195.344 44.5142 195.632 44.5639 195.985 44.5639C196.468 44.5639 196.867 44.446 197.182 44.2102C197.498 43.9773 197.655 43.6051 197.655 43.0938V41.8068H197.574C197.498 41.946 197.387 42.1009 197.242 42.2713C197.1 42.4418 196.904 42.5895 196.654 42.7145C196.404 42.8395 196.078 42.902 195.678 42.902C195.161 42.902 194.695 42.7812 194.28 42.5398C193.868 42.2955 193.542 41.9361 193.3 41.4616C193.061 40.9844 192.942 40.3977 192.942 39.7017C192.942 39.0057 193.06 38.4091 193.296 37.9119C193.534 37.4148 193.861 37.0341 194.276 36.7699C194.691 36.5028 195.161 36.3693 195.686 36.3693C196.093 36.3693 196.421 36.4375 196.671 36.5739C196.921 36.7074 197.115 36.8636 197.255 37.0426C197.397 37.2216 197.506 37.3793 197.583 37.5156H197.676V36.4545H198.925V43.1449C198.925 43.7074 198.794 44.169 198.533 44.5298C198.272 44.8906 197.918 45.1577 197.472 45.331C197.029 45.5043 196.529 45.5909 195.972 45.5909ZM195.959 41.8452C196.326 41.8452 196.635 41.7599 196.888 41.5895C197.144 41.4162 197.337 41.169 197.468 40.848C197.601 40.5241 197.668 40.1364 197.668 39.6847C197.668 39.2443 197.603 38.8565 197.472 38.5213C197.341 38.1861 197.15 37.9247 196.897 37.7372C196.644 37.5469 196.331 37.4517 195.959 37.4517C195.576 37.4517 195.256 37.5511 195 37.75C194.745 37.946 194.551 38.2131 194.421 38.5511C194.293 38.8892 194.229 39.267 194.229 39.6847C194.229 40.1136 194.294 40.4901 194.425 40.8139C194.556 41.1378 194.749 41.3906 195.005 41.5724C195.263 41.7543 195.581 41.8452 195.959 41.8452ZM205.539 38.0526L204.384 38.2571C204.336 38.1094 204.259 37.9687 204.154 37.8352C204.051 37.7017 203.912 37.5923 203.736 37.5071C203.56 37.4219 203.34 37.3793 203.076 37.3793C202.715 37.3793 202.414 37.4602 202.172 37.6222C201.931 37.7812 201.81 37.9872 201.81 38.2401C201.81 38.4588 201.891 38.6349 202.053 38.7685C202.215 38.902 202.476 39.0114 202.837 39.0966L203.877 39.3352C204.479 39.4744 204.928 39.6889 205.223 39.9787C205.519 40.2685 205.667 40.6449 205.667 41.108C205.667 41.5 205.553 41.8494 205.326 42.1562C205.101 42.4602 204.787 42.6989 204.384 42.8722C203.983 43.0455 203.519 43.1321 202.99 43.1321C202.257 43.1321 201.659 42.9759 201.196 42.6634C200.733 42.348 200.449 41.9006 200.344 41.321L201.576 41.1335C201.652 41.4545 201.81 41.6974 202.049 41.8622C202.287 42.0241 202.598 42.1051 202.982 42.1051C203.4 42.1051 203.733 42.0185 203.983 41.8452C204.233 41.669 204.358 41.4545 204.358 41.2017C204.358 40.9972 204.282 40.8253 204.128 40.6861C203.978 40.5469 203.746 40.4418 203.434 40.3707L202.326 40.1278C201.715 39.9886 201.263 39.767 200.971 39.4631C200.681 39.1591 200.536 38.7741 200.536 38.3082C200.536 37.9219 200.644 37.5838 200.86 37.294C201.076 37.0043 201.374 36.7784 201.755 36.6165C202.135 36.4517 202.571 36.3693 203.063 36.3693C203.77 36.3693 204.327 36.5227 204.733 36.8295C205.14 37.1335 205.408 37.5412 205.539 38.0526Z" fill="#667085"/>
<line x1="227.5" y1="2.18557e-08" x2="227.5" y2="48" stroke="#D0D5DD"/>
<path d="M252.874 2.26173C252.23 2.26495 251.614 2.52288 251.16 2.97912C250.706 3.43537 250.451 4.0528 250.451 4.69641C250.452 5.26196 250.651 5.80941 251.012 6.24479C251.373 6.68016 251.874 6.9763 252.429 7.08235V16.912C251.873 17.0182 251.371 17.3151 251.01 17.7514C250.649 18.1878 250.451 18.7363 250.451 19.3027C250.452 19.9481 250.708 20.5669 251.165 21.023C251.621 21.4792 252.24 21.7355 252.886 21.7355C253.531 21.735 254.149 21.4785 254.606 21.0224C255.062 20.5662 255.318 19.9477 255.319 19.3027C255.319 18.7366 255.121 18.1883 254.761 17.7521C254.4 17.3158 253.899 17.0187 253.343 16.912V12.4542H260.541V16.912C259.984 17.0182 259.482 17.3151 259.121 17.7514C258.76 18.1878 258.563 18.7363 258.562 19.3027C258.563 19.6225 258.626 19.9391 258.749 20.2345C258.871 20.5298 259.051 20.7981 259.277 21.024C259.504 21.25 259.772 21.4291 260.068 21.5511C260.363 21.6732 260.68 21.7358 261 21.7355C261.645 21.735 262.263 21.4785 262.72 21.0224C263.176 20.5662 263.432 19.9477 263.433 19.3027C263.433 18.7363 263.235 18.1878 262.874 17.7514C262.513 17.3151 262.011 17.0182 261.455 16.912V12.4542H269.569V7.08235C270.124 6.9763 270.625 6.68016 270.986 6.24479C271.347 5.80941 271.546 5.26196 271.547 4.69641C271.547 4.05102 271.291 3.43203 270.834 2.97549C270.378 2.51895 269.759 2.26222 269.114 2.26173C269.111 2.26172 269.108 2.26172 269.105 2.26173C268.461 2.2647 267.844 2.52252 267.39 2.9788C266.936 3.43507 266.681 4.05264 266.681 4.69641C266.682 5.26196 266.881 5.80941 267.242 6.24479C267.603 6.68016 268.104 6.9763 268.659 7.08235V11.5402H261.455V7.08235C262.01 6.9763 262.511 6.68016 262.872 6.24479C263.233 5.80941 263.431 5.26196 263.433 4.69641C263.433 4.05102 263.176 3.43203 262.72 2.97549C262.264 2.51895 261.645 2.26222 261 2.26173C260.997 2.26172 260.994 2.26172 260.991 2.26173C260.346 2.26346 259.728 2.52074 259.273 2.97715C258.818 3.43355 258.562 4.05183 258.562 4.69641C258.564 5.26196 258.762 5.80941 259.123 6.24479C259.484 6.68016 259.985 6.9763 260.541 7.08235V11.5402H253.343V7.08235C253.898 6.97582 254.399 6.67948 254.759 6.24415C255.12 5.80882 255.317 5.26163 255.319 4.69641C255.319 4.05102 255.062 3.43203 254.606 2.97549C254.15 2.51895 253.531 2.26222 252.886 2.26173C252.882 2.26172 252.878 2.26172 252.874 2.26173Z" fill="#344054"/>
<path d="M248.696 43H247.298L250.439 34.2727H251.96L255.101 43H253.703L251.236 35.858H251.168L248.696 43ZM248.93 39.5824H253.464V40.6903H248.93V39.5824ZM260.405 40.2855V36.4545H261.684V43H260.431V41.8665H260.363C260.212 42.2159 259.971 42.5071 259.638 42.7401C259.309 42.9702 258.898 43.0852 258.407 43.0852C257.986 43.0852 257.614 42.9929 257.29 42.8082C256.969 42.6207 256.716 42.3438 256.532 41.9773C256.35 41.6108 256.259 41.1577 256.259 40.6179V36.4545H257.533V40.4645C257.533 40.9105 257.657 41.2656 257.904 41.5298C258.151 41.794 258.472 41.9261 258.867 41.9261C259.105 41.9261 259.343 41.8665 259.578 41.7472C259.817 41.6278 260.015 41.4474 260.171 41.206C260.33 40.9645 260.408 40.6577 260.405 40.2855ZM266.451 36.4545V37.4773H262.876V36.4545H266.451ZM263.835 34.8864H265.109V41.0781C265.109 41.3253 265.146 41.5114 265.219 41.6364C265.293 41.7585 265.388 41.8423 265.505 41.8878C265.624 41.9304 265.754 41.9517 265.893 41.9517C265.995 41.9517 266.085 41.9446 266.161 41.9304C266.238 41.9162 266.298 41.9048 266.34 41.8963L266.57 42.9489C266.496 42.9773 266.391 43.0057 266.255 43.0341C266.119 43.0653 265.948 43.0824 265.744 43.0852C265.408 43.0909 265.096 43.0312 264.806 42.9062C264.516 42.7812 264.282 42.5881 264.103 42.3267C263.924 42.0653 263.835 41.7372 263.835 41.3423V34.8864ZM270.547 43.1321C269.934 43.1321 269.398 42.9915 268.941 42.7102C268.483 42.429 268.128 42.0355 267.875 41.5298C267.623 41.0241 267.496 40.4332 267.496 39.7571C267.496 39.0781 267.623 38.4844 267.875 37.9759C268.128 37.4673 268.483 37.0724 268.941 36.7912C269.398 36.5099 269.934 36.3693 270.547 36.3693C271.161 36.3693 271.696 36.5099 272.154 36.7912C272.611 37.0724 272.966 37.4673 273.219 37.9759C273.472 38.4844 273.598 39.0781 273.598 39.7571C273.598 40.4332 273.472 41.0241 273.219 41.5298C272.966 42.0355 272.611 42.429 272.154 42.7102C271.696 42.9915 271.161 43.1321 270.547 43.1321ZM270.551 42.0625C270.949 42.0625 271.279 41.9574 271.54 41.7472C271.801 41.5369 271.995 41.2571 272.12 40.9077C272.248 40.5582 272.311 40.1733 272.311 39.7528C272.311 39.3352 272.248 38.9517 272.12 38.6023C271.995 38.25 271.801 37.9673 271.54 37.7543C271.279 37.5412 270.949 37.4347 270.551 37.4347C270.151 37.4347 269.819 37.5412 269.554 37.7543C269.293 37.9673 269.098 38.25 268.971 38.6023C268.846 38.9517 268.783 39.3352 268.783 39.7528C268.783 40.1733 268.846 40.5582 268.971 40.9077C269.098 41.2571 269.293 41.5369 269.554 41.7472C269.819 41.9574 270.151 42.0625 270.551 42.0625Z" fill="#667085"/>
<defs>
<clipPath id="clip0_3_32932">
<rect width="24" height="24" fill="white" transform="translate(9)"/>
</clipPath>
</defs>
</svg>
