<svg width="17" height="14" viewBox="0 0 17 14" fill="none" xmlns="http://www.w3.org/2000/svg">
<path d="M1.95312 6.79492C1.12812 6.79492 0.453125 6.11992 0.453125 5.29492V1.54492C0.453125 0.719922 1.12812 0.0449219 1.95312 0.0449219H7.95312C8.77812 0.0449219 9.45312 0.719922 9.45312 1.54492V5.29492C9.45312 6.11992 8.77812 6.79492 7.95312 6.79492H6.45312V9.04492L4.20312 6.79492H1.95312ZM15.4531 11.2949C16.2781 11.2949 16.9531 10.6199 16.9531 9.79492V6.04492C16.9531 5.21992 16.2781 4.54492 15.4531 4.54492H10.9531V5.29492C10.9531 6.94492 9.60312 8.29492 7.95312 8.29492V9.79492C7.95312 10.6199 8.62813 11.2949 9.45312 11.2949H10.9531V13.5449L13.2031 11.2949H15.4531Z" fill="white"/>
</svg>
