<svg width="46" height="32" viewBox="0 0 46 32" fill="none" xmlns="http://www.w3.org/2000/svg">
<rect x="0.5" y="0.5" width="45" height="31" rx="3.5" fill="white"/>
<rect x="0.5" y="0.5" width="45" height="31" rx="3.5" stroke="#F2F4F7"/>
<path fill-rule="evenodd" clip-rule="evenodd" d="M21.4103 20.7034V16.7906H23.4298C24.2574 16.7906 24.9558 16.5133 25.5252 15.9664L25.6619 15.8278C26.702 14.6955 26.6337 12.9316 25.5252 11.8841C24.971 11.3295 24.2118 11.0291 23.4298 11.0445H20.188V20.7034H21.4103ZM21.4105 15.6043V12.2306H23.4607C23.9011 12.2306 24.3187 12.4001 24.63 12.7082C25.2906 13.3552 25.3058 14.4335 24.668 15.1036C24.3567 15.4349 23.9163 15.6197 23.4607 15.6043H21.4105ZM31.3636 14.6107C30.8398 14.1255 30.1261 13.879 29.2226 13.879C28.061 13.879 27.188 14.3103 26.611 15.1653L27.689 15.8508C28.0838 15.2654 28.6229 14.9727 29.3062 14.9727C29.7389 14.9727 30.1565 15.1345 30.4829 15.4272C30.8018 15.7045 30.984 16.105 30.984 16.5287V16.8136C30.5133 16.5518 29.9211 16.4131 29.1923 16.4131C28.342 16.4131 27.6587 16.6134 27.15 17.0216C26.6413 17.4298 26.3832 17.969 26.3832 18.6545C26.368 19.2784 26.6337 19.8715 27.1044 20.2721C27.5827 20.7034 28.1901 20.9191 28.9038 20.9191C29.7465 20.9191 30.4146 20.5417 30.9233 19.7868H30.9764V20.7034H32.1456V16.6288C32.1456 15.7738 31.8875 15.096 31.3636 14.6107ZM28.0461 19.4864C27.7955 19.3016 27.6436 19.0012 27.6436 18.6777C27.6436 18.3157 27.8107 18.0153 28.1372 17.7765C28.4713 17.5377 28.8889 17.4145 29.3825 17.4145C30.0659 17.4068 30.5974 17.5608 30.9771 17.8689C30.9771 18.3927 30.7721 18.8471 30.3696 19.2323C30.0051 19.602 29.5116 19.8099 28.9952 19.8099C28.6535 19.8176 28.3194 19.7021 28.0461 19.4864ZM34.7725 23.6072L38.8571 14.0947H37.5284L35.638 18.8394H35.6152L33.6792 14.0947H32.3506L35.0306 20.2798L33.5122 23.6072H34.7725Z" fill="#3C4043"/>
<path d="M17.1905 15.9439C17.1905 15.5665 17.1601 15.1891 17.0994 14.8193H11.9443V16.9529H14.8977C14.7762 17.6384 14.3814 18.2546 13.8044 18.6398V20.0262H15.5658C16.5983 19.0634 17.1905 17.6385 17.1905 15.9439Z" fill="#4285F4"/>
<path d="M11.9447 21.3666C13.4176 21.3666 14.6627 20.8737 15.5662 20.0264L13.8048 18.64C13.3113 18.9789 12.6812 19.1714 11.9447 19.1714C10.5174 19.1714 9.31025 18.1932 8.8775 16.8838H7.06299V18.3165C7.98923 20.1882 9.87966 21.3666 11.9447 21.3666Z" fill="#34A853"/>
<path d="M8.87746 16.8839C8.64966 16.1983 8.64966 15.4512 8.87746 14.758V13.333H7.06266C6.28055 14.8966 6.28055 16.7452 7.06266 18.3088L8.87746 16.8839Z" fill="#FBBC04"/>
<path d="M11.9447 12.47C12.7267 12.4546 13.4783 12.755 14.0401 13.3018L15.6041 11.7151C14.6095 10.7754 13.3037 10.2593 11.9447 10.2747C9.87966 10.2747 7.98923 11.4609 7.06299 13.3326L8.8775 14.7653C9.31025 13.4482 10.5174 12.47 11.9447 12.47Z" fill="#EA4335"/>
</svg>
