<svg width="104" height="64" viewBox="0 0 104 64" fill="none" xmlns="http://www.w3.org/2000/svg">
<path d="M24.2454 31.2551C21.7153 30.9853 20.1119 28.1967 21.0879 25.872C21.8732 24.0018 23.1566 23.0126 25.2331 23.1526C25.7936 23.1904 26.359 23.1551 26.9221 23.1523C28.1635 23.146 29.1231 22.4705 29.1824 21.5618C29.238 20.7108 28.2901 19.5846 27.2278 19.5557C25.1155 19.4981 22.9986 19.6402 20.8838 19.6364C17.092 19.6296 13.2904 19.7283 9.51253 19.482C7.41352 19.3451 6.38419 16.9985 6.61156 15.2735C6.8797 13.2391 8.5759 11.6331 10.5942 11.693C13.4941 11.779 16.4026 11.7975 19.2981 11.6553C20.0061 11.6205 20.8251 10.9652 21.2997 10.3636C21.5117 10.0948 21.1141 9.1692 20.7722 8.70407C20.5639 8.42068 19.9393 8.37531 19.4937 8.3464C17.6941 8.22965 15.8717 8.29615 14.0949 8.03865C12.0602 7.74377 10.9408 6.06873 10.9897 3.82743C11.0278 2.08075 12.3771 0.5452 14.2326 0.288998C15.0915 0.170398 15.9811 0.282359 16.8566 0.273392C24.6405 0.193663 32.426 0.177455 40.2079 0.00365014C45.1625 -0.107009 48.4088 2.30437 50.7413 6.42397C52.722 9.92218 54.6809 13.4667 57.5899 16.3064C60.6725 19.3155 65.946 18.6558 68.3902 15.1633C70.6795 11.8922 72.7016 8.43521 74.9041 5.10161C76.6891 2.40007 78.8835 0.293018 82.436 0.261816C88.3559 0.209824 94.2764 -0.00205187 100.194 0.0598276C103.374 0.093068 104.635 3.74558 102.684 6.68747C100.684 9.70446 98.7288 12.7525 96.7989 15.8153C93.5118 21.032 90.2614 26.272 86.9927 31.5004C84.2128 35.9469 81.4186 40.3845 78.6499 44.8381C76.5349 48.2402 74.4639 51.6697 72.3463 55.0702C71.0626 57.1316 69.7805 59.1975 68.4022 61.1955C66.6928 63.6731 62.09 64.6878 59.1712 63.5108C57.1126 62.6807 55.7023 61.2288 54.526 59.4727C51.5187 54.9832 48.552 50.4664 45.5524 45.9717C42.8036 41.8527 40.0202 37.7568 37.2792 33.6326C36.436 32.3638 35.211 31.7879 33.6112 31.393C30.361 31.2989 27.3032 31.277 24.2454 31.2551Z" fill="#03C548"/>
<path d="M1.78325 7.31064C0.646599 5.9221 -0.0245406 4.51234 0.667787 2.77055C1.40519 0.915356 3.26634 -0.25715 4.98448 0.0482467C7.00589 0.407551 8.62802 2.26037 8.64515 4.2295C8.66831 6.8943 5.48083 9.01505 2.95948 7.99888C2.56959 7.84175 2.21471 7.59474 1.78325 7.31064Z" fill="#03C548"/>
</svg>
