<svg width="18" height="19" viewBox="0 0 18 19" fill="none" xmlns="http://www.w3.org/2000/svg">
<path d="M15.75 2.84082V12.2158C15.75 12.912 15.4734 13.5797 14.9812 14.072C14.4889 14.5643 13.8212 14.8408 13.125 14.8408C12.4288 14.8408 11.7611 14.5643 11.2688 14.072C10.7766 13.5797 10.5 12.912 10.5 12.2158C10.5 11.5196 10.7766 10.8519 11.2688 10.3597C11.7611 9.86738 12.4288 9.59082 13.125 9.59082C13.53 9.59082 13.9125 9.68082 14.25 9.84582V5.44332L6.75 7.04082V13.7158C6.75 14.412 6.47344 15.0797 5.98116 15.572C5.48887 16.0643 4.82119 16.3408 4.125 16.3408C3.42881 16.3408 2.76113 16.0643 2.26884 15.572C1.77656 15.0797 1.5 14.412 1.5 13.7158C1.5 13.0196 1.77656 12.3519 2.26884 11.8597C2.76113 11.3674 3.42881 11.0908 4.125 11.0908C4.53 11.0908 4.9125 11.1808 5.25 11.3458V5.09082L15.75 2.84082Z" fill="white"/>
</svg>
