<svg width="24" height="24" viewBox="0 0 24 24" fill="none" xmlns="http://www.w3.org/2000/svg">
<path d="M16.2857 15C16.0584 15 15.8404 15.0903 15.6796 15.251C15.5189 15.4118 15.4286 15.6298 15.4286 15.8571C15.4286 16.0845 15.5189 16.3025 15.6796 16.4632C15.8404 16.624 16.0584 16.7143 16.2857 16.7143H19.7143C19.9416 16.7143 20.1596 16.624 20.3204 16.4632C20.4811 16.3025 20.5714 16.0845 20.5714 15.8571C20.5714 15.6298 20.4811 15.4118 20.3204 15.251C20.1596 15.0903 19.9416 15 19.7143 15H16.2857ZM0 7.28571C0 6.14907 0.451529 5.05898 1.25526 4.25526C2.05898 3.45153 3.14907 3 4.28571 3H19.7143C20.8509 3 21.941 3.45153 22.7447 4.25526C23.5485 5.05898 24 6.14907 24 7.28571V15.8571C24 16.9938 23.5485 18.0839 22.7447 18.8876C21.941 19.6913 20.8509 20.1429 19.7143 20.1429H4.28571C3.14907 20.1429 2.05898 19.6913 1.25526 18.8876C0.451529 18.0839 0 16.9938 0 15.8571V7.28571ZM22.2857 8.14286V7.28571C22.2857 6.60373 22.0148 5.94968 21.5326 5.46744C21.0503 4.9852 20.3963 4.71429 19.7143 4.71429H4.28571C3.60373 4.71429 2.94968 4.9852 2.46744 5.46744C1.9852 5.94968 1.71429 6.60373 1.71429 7.28571V8.14286H22.2857ZM1.71429 9.85714V15.8571C1.71429 16.5391 1.9852 17.1932 2.46744 17.6754C2.94968 18.1577 3.60373 18.4286 4.28571 18.4286H19.7143C20.3963 18.4286 21.0503 18.1577 21.5326 17.6754C22.0148 17.1932 22.2857 16.5391 22.2857 15.8571V9.85714H1.71429Z" fill="#344054"/>
</svg>
