<svg width="24" height="24" viewBox="0 0 24 24" fill="none" xmlns="http://www.w3.org/2000/svg">
<path d="M18.5398 4.17063L13.0398 2.11062C12.4698 1.90063 11.5398 1.90063 10.9698 2.11062L5.4698 4.17063C4.4098 4.57063 3.5498 5.81063 3.5498 6.94063V15.0406C3.5498 15.8506 4.0798 16.9206 4.7298 17.4006L10.2298 21.5106C11.1998 22.2406 12.7898 22.2406 13.7598 21.5106L19.2598 17.4006C19.9098 16.9106 20.4398 15.8506 20.4398 15.0406V6.94063C20.4498 5.81063 19.5898 4.57063 18.5398 4.17063ZM12.7498 12.8706V15.5006C12.7498 15.9106 12.4098 16.2506 11.9998 16.2506C11.5898 16.2506 11.2498 15.9106 11.2498 15.5006V12.8706C10.2398 12.5506 9.4998 11.6106 9.4998 10.5006C9.4998 9.12062 10.6198 8.00063 11.9998 8.00063C13.3798 8.00063 14.4998 9.12062 14.4998 10.5006C14.4998 11.6206 13.7598 12.5506 12.7498 12.8706Z" fill="#4E5BA6"/>
</svg>
