<svg width="19" height="20" viewBox="0 0 19 20" fill="none" xmlns="http://www.w3.org/2000/svg">
<path d="M0.76282 15.5174L3.11458 19.5908L14.7916 12.849L12.4398 8.77568L0.76282 15.5174ZM13.0782 12.39L3.57368 17.8774L2.47619 15.9765L11.9807 10.489L13.0782 12.39ZM13.2545 8.30532L14.3407 7.67819L16.6925 11.7516L15.6063 12.3787L13.2545 8.30532ZM15.1554 7.20783L16.2416 6.5807L18.5934 10.6541L17.5072 11.2812L15.1554 7.20783ZM11.9958 6.01322C11.7521 5.89194 11.5546 5.69467 11.433 5.45121C11.3113 5.20774 11.2723 4.93131 11.3216 4.66366C11.4255 4.11354 11.3415 3.54447 11.0833 3.04775C10.8251 2.55102 10.4075 2.15541 9.89754 1.92437L9.53842 1.76094L8.29682 2.47778L8.26052 2.55757L9.3781 3.06601C9.63256 3.18129 9.84093 3.37869 9.96978 3.62655C10.0986 3.87441 10.1405 4.15836 10.0887 4.43287C9.98982 4.96924 10.0682 5.52323 10.3119 6.01114C10.5556 6.49906 10.9515 6.89442 11.4398 7.13749L11.8178 7.3244L13.1233 6.57066L11.9958 6.01322ZM14.4398 4.60216C14.1962 4.48089 13.9986 4.28361 13.877 4.04015C13.7554 3.79668 13.7163 3.52025 13.7656 3.25261C13.8695 2.70248 13.7856 2.13342 13.5273 1.63669C13.2691 1.13996 12.8515 0.744351 12.3416 0.513311L11.9824 0.349883L10.7408 1.06672L10.7045 1.14652L11.8221 1.65495C12.0766 1.77023 12.285 1.96763 12.4138 2.21549C12.5427 2.46335 12.5845 2.74731 12.5327 3.02181C12.4338 3.55819 12.5122 4.11217 12.7559 4.60009C12.9997 5.088 13.3956 5.48336 13.8838 5.72643L14.2618 5.91334L15.5674 5.1596L14.4398 4.60216Z" fill="white"/>
</svg>
