<svg width="46" height="32" viewBox="0 0 46 32" fill="none" xmlns="http://www.w3.org/2000/svg">
<rect x="0.5" y="0.5" width="45" height="31" rx="3.5" fill="white"/>
<rect x="0.5" y="0.5" width="45" height="31" rx="3.5" stroke="#F2F4F7"/>
<path fill-rule="evenodd" clip-rule="evenodd" d="M24.3574 10.8559L22.0546 11.3647V9.44269L24.3574 8.94336V10.8559ZM29.1464 11.9205C28.2473 11.9205 27.6693 12.3539 27.3482 12.6554L27.2289 12.0713H25.2105V23.0566L27.5041 22.5573L27.5133 19.891C27.8436 20.136 28.3299 20.4846 29.1372 20.4846C30.7795 20.4846 32.275 19.1279 32.275 16.1413C32.2658 13.4091 30.752 11.9205 29.1464 11.9205ZM28.5959 18.4118C28.0546 18.4118 27.7335 18.214 27.5133 17.969L27.5041 14.4737C27.7427 14.2005 28.073 14.0121 28.5959 14.0121C29.4308 14.0121 30.0088 14.973 30.0088 16.2072C30.0088 17.4697 29.44 18.4118 28.5959 18.4118ZM39.5046 16.2355C39.5046 13.8236 38.367 11.9205 36.1926 11.9205C34.0091 11.9205 32.6879 13.8236 32.6879 16.2167C32.6879 19.0525 34.2476 20.4845 36.4862 20.4845C37.578 20.4845 38.4037 20.2302 39.0276 19.8722V17.9879C38.4037 18.3082 37.6881 18.5061 36.7798 18.5061C35.8899 18.5061 35.1008 18.1857 34.9999 17.074H39.4863C39.4863 17.0221 39.4896 16.9041 39.4934 16.7682C39.4986 16.5835 39.5046 16.3658 39.5046 16.2355ZM34.9723 15.3405C34.9723 14.2759 35.6054 13.8331 36.1834 13.8331C36.743 13.8331 37.3394 14.2759 37.3394 15.3405H34.9723ZM22.0544 12.0807H24.3573V20.3244H22.0544V12.0807ZM19.4399 12.0807L19.5867 12.7779C20.128 11.7604 21.2014 11.9676 21.495 12.0807V14.2476C21.2106 14.144 20.2931 14.0121 19.7518 14.7375V20.3244H17.4581V12.0807H19.4399ZM14.9992 10.0362L12.7606 10.5261L12.7514 18.0727C12.7514 19.467 13.7698 20.494 15.1276 20.494C15.88 20.494 16.4305 20.3526 16.7332 20.1831V18.2705C16.4396 18.393 14.99 18.8264 14.99 17.432V14.0874H16.7332V12.0807H14.99L14.9992 10.0362ZM9.57711 13.965C9.09085 13.965 8.79726 14.1063 8.79726 14.4737C8.79726 14.8749 9.30253 15.0514 9.92937 15.2703C10.9513 15.6272 12.2963 16.097 12.302 17.8372C12.302 19.5236 10.99 20.494 9.08167 20.494C8.29265 20.494 7.43024 20.3338 6.577 19.957V17.7147C7.34767 18.1481 8.32018 18.4684 9.08167 18.4684C9.59545 18.4684 9.96244 18.3271 9.96244 17.8937C9.96244 17.4493 9.41472 17.2462 8.75347 17.001C7.74642 16.6275 6.47607 16.1564 6.47607 14.5868C6.47607 12.9192 7.71465 11.9205 9.57711 11.9205C10.3386 11.9205 11.0909 12.043 11.8524 12.3539V14.5679C11.1551 14.1817 10.2744 13.965 9.57711 13.965Z" fill="#6461FC"/>
</svg>
