<svg width="16" height="16" viewBox="0 0 16 16" fill="none" xmlns="http://www.w3.org/2000/svg">
<g clip-path="url(#clip0_132_20864)">
<path d="M6.09076 6.09151L3.28587 3.28662M3.28587 12.7147L6.1119 9.88869M9.9073 9.90983L12.7122 12.7147M12.7122 3.28662L9.88574 6.11306M14.6666 8.00065C14.6666 11.6826 11.6818 14.6673 7.99992 14.6673C4.31802 14.6673 1.33325 11.6826 1.33325 8.00065C1.33325 4.31875 4.31802 1.33398 7.99992 1.33398C11.6818 1.33398 14.6666 4.31875 14.6666 8.00065ZM10.6666 8.00065C10.6666 9.47341 9.47268 10.6673 7.99992 10.6673C6.52716 10.6673 5.33325 9.47341 5.33325 8.00065C5.33325 6.52789 6.52716 5.33398 7.99992 5.33398C9.47268 5.33398 10.6666 6.52789 10.6666 8.00065Z" stroke="#667085" stroke-width="2" stroke-linecap="round" stroke-linejoin="round"/>
</g>
<defs>
<clipPath id="clip0_132_20864">
<rect width="16" height="16" fill="white"/>
</clipPath>
</defs>
</svg>
